<?xml version="1.0" standalone="no"?>
<!DOCTYPE svg PUBLIC "-//W3C//DTD SVG 20010904//EN"
 "http://www.w3.org/TR/2001/REC-SVG-20010904/DTD/svg10.dtd">
<svg version="1.0" xmlns="http://www.w3.org/2000/svg"
 width="128.000000pt" height="128.000000pt" viewBox="0 0 128.000000 128.000000"
 preserveAspectRatio="xMidYMid meet">
<metadata>
Created by potrace 1.11, written by Peter Selinger 2001-2013
</metadata>
<g transform="translate(0.000000,128.000000) scale(0.100000,-0.100000)"
fill="#000000" stroke="none">
<path d="M568 1192 c-26 -13 -57 -24 -69 -25 -12 -1 -25 -11 -29 -23 -5 -12
-25 -35 -44 -51 -20 -15 -36 -35 -36 -44 0 -9 -6 -19 -14 -22 -7 -3 -17 -23
-21 -44 -4 -21 -12 -44 -18 -52 -8 -9 -11 -49 -11 -105 1 -50 2 -112 2 -138 1
-70 20 -128 52 -158 16 -15 34 -46 40 -71 7 -24 21 -56 31 -70 28 -40 25 -77
-8 -90 -16 -6 -65 -28 -110 -50 -45 -21 -119 -48 -165 -59 -46 -12 -102 -28
-126 -37 l-42 -16 0 -68 0 -69 271 0 271 0 -6 35 -7 35 43 -8 c58 -9 148 -9
176 1 25 9 25 4 5 -50 -4 -10 52 -13 261 -13 l266 0 0 59 0 59 -97 33 c-54 18
-139 51 -190 75 -50 23 -105 45 -122 49 -39 8 -52 47 -28 84 34 53 57 107 57
134 0 15 4 27 10 27 18 0 47 75 60 155 24 149 6 271 -50 343 -11 14 -20 34
-20 46 0 13 -13 32 -31 45 -16 12 -34 34 -40 48 -9 24 -11 25 -23 8 -10 -14
-16 -15 -34 -6 -11 6 -28 21 -36 32 -8 12 -21 19 -29 16 -7 -3 -31 -2 -53 2
-30 5 -49 2 -86 -17z m38 -274 c7 -10 -17 -36 -55 -58 -13 -8 -14 -11 -2 -19
9 -6 10 -11 2 -15 -6 -4 -9 -11 -7 -15 3 -3 -4 -7 -15 -7 -24 0 -25 12 -1 21
16 6 16 7 0 16 -10 6 -18 18 -18 27 0 10 -5 23 -11 29 -9 9 -3 14 22 21 47 14
77 14 85 0z m55 -5 c-11 -4 -11 -7 0 -14 7 -4 10 -11 6 -16 -9 -9 -28 17 -21
29 3 4 11 8 17 7 8 0 7 -3 -2 -6z m-166 -252 c-18 -7 -18 -9 7 -22 l27 -14
-25 -12 c-20 -9 -24 -9 -24 4 0 9 -6 13 -14 10 -9 -4 -12 2 -11 16 3 29 1 27
33 26 23 0 24 -1 7 -8z m111 -46 c-7 -18 -26 -20 -26 -2 0 18 24 41 28 27 2
-6 1 -17 -2 -25z"/>
</g>
</svg>
